<mxfile host="app.diagrams.net" modified="2021-06-10T02:04:33.854Z" agent="5.0 (Macintosh; Intel Mac OS X 10_14_6) AppleWebKit/537.36 (KHTML, like Gecko) coc_coc_browser/94.0.212 Chrome/88.0.4324.212 Safari/537.36" etag="3RrZyLv-JQJsTjw6n3RE" version="14.7.6" type="github">
  <diagram name="Page-1" id="97916047-d0de-89f5-080d-49f4d83e522f">
    <mxGraphModel dx="1237" dy="653" grid="1" gridSize="10" guides="1" tooltips="1" connect="1" arrows="1" fold="1" page="1" pageScale="1.5" pageWidth="1169" pageHeight="827" background="none" math="0" shadow="0">
      <root>
        <mxCell id="0" />
        <mxCell id="1" parent="0" />
        <mxCell id="GUcLzigqZOoaiBpsy-g--56" value="" style="edgeStyle=orthogonalEdgeStyle;rounded=0;orthogonalLoop=1;jettySize=auto;html=1;" edge="1" parent="1" source="2" target="GUcLzigqZOoaiBpsy-g--55">
          <mxGeometry relative="1" as="geometry" />
        </mxCell>
        <mxCell id="2" value="Homepage" style="rounded=1;fillColor=#10739E;strokeColor=none;shadow=1;gradientColor=none;fontStyle=1;fontColor=#FFFFFF;fontSize=14;" parent="1" vertex="1">
          <mxGeometry x="777" y="190" width="200" height="60" as="geometry" />
        </mxCell>
        <mxCell id="GUcLzigqZOoaiBpsy-g--58" value="" style="edgeStyle=orthogonalEdgeStyle;rounded=0;orthogonalLoop=1;jettySize=auto;html=1;" edge="1" parent="1" source="GUcLzigqZOoaiBpsy-g--55" target="GUcLzigqZOoaiBpsy-g--57">
          <mxGeometry relative="1" as="geometry" />
        </mxCell>
        <mxCell id="GUcLzigqZOoaiBpsy-g--60" value="" style="edgeStyle=orthogonalEdgeStyle;rounded=0;orthogonalLoop=1;jettySize=auto;html=1;" edge="1" parent="1" source="GUcLzigqZOoaiBpsy-g--55" target="GUcLzigqZOoaiBpsy-g--59">
          <mxGeometry relative="1" as="geometry" />
        </mxCell>
        <mxCell id="GUcLzigqZOoaiBpsy-g--61" value="" style="edgeStyle=orthogonalEdgeStyle;rounded=0;orthogonalLoop=1;jettySize=auto;html=1;" edge="1" parent="1" source="GUcLzigqZOoaiBpsy-g--55" target="GUcLzigqZOoaiBpsy-g--59">
          <mxGeometry relative="1" as="geometry" />
        </mxCell>
        <mxCell id="GUcLzigqZOoaiBpsy-g--63" value="" style="edgeStyle=orthogonalEdgeStyle;rounded=0;orthogonalLoop=1;jettySize=auto;html=1;" edge="1" parent="1" source="GUcLzigqZOoaiBpsy-g--55" target="GUcLzigqZOoaiBpsy-g--62">
          <mxGeometry relative="1" as="geometry" />
        </mxCell>
        <mxCell id="GUcLzigqZOoaiBpsy-g--55" value="Giới thiệu" style="whiteSpace=wrap;html=1;rounded=1;shadow=1;fontSize=14;fontColor=#FFFFFF;fontStyle=1;strokeColor=none;fillColor=#10739E;" vertex="1" parent="1">
          <mxGeometry x="220" y="320" width="120" height="60" as="geometry" />
        </mxCell>
        <mxCell id="GUcLzigqZOoaiBpsy-g--57" value="Câu chuyện thương hiệu" style="whiteSpace=wrap;html=1;rounded=1;shadow=1;fontSize=14;fontColor=#FFFFFF;fontStyle=1;strokeColor=none;fillColor=#10739E;" vertex="1" parent="1">
          <mxGeometry x="40" y="440" width="120" height="60" as="geometry" />
        </mxCell>
        <mxCell id="GUcLzigqZOoaiBpsy-g--59" value="Câu chuyện khách hàng" style="whiteSpace=wrap;html=1;rounded=1;shadow=1;fontSize=14;fontColor=#FFFFFF;fontStyle=1;strokeColor=none;fillColor=#10739E;" vertex="1" parent="1">
          <mxGeometry x="220" y="440" width="120" height="60" as="geometry" />
        </mxCell>
        <mxCell id="GUcLzigqZOoaiBpsy-g--62" value="Cơ sở vật chất" style="whiteSpace=wrap;html=1;rounded=1;shadow=1;fontSize=14;fontColor=#FFFFFF;fontStyle=1;strokeColor=none;fillColor=#10739E;" vertex="1" parent="1">
          <mxGeometry x="390" y="440" width="120" height="60" as="geometry" />
        </mxCell>
      </root>
    </mxGraphModel>
  </diagram>
</mxfile>
